<svg width="467" height="43" viewBox="0 0 467 43" fill="none" xmlns="http://www.w3.org/2000/svg">
<path d="M28.7147 23.8163L0 23.8163L0 32.684L28.7147 32.684L28.7147 23.8163Z" fill="url(#paint0_linear_8_96)"/>
<path d="M56.5848 0.168915L27.8701 0.168915L27.8701 9.03668L56.5848 9.03668V0.168915Z" fill="url(#paint1_linear_8_96)"/>
<path d="M42.2274 12.1404L13.5127 12.1404L13.5127 21.0082L42.2274 21.0082V12.1404Z" fill="url(#paint2_linear_8_96)"/>
<path d="M232.133 13.2045C231.601 12.2122 230.879 11.4014 229.958 10.7722C229.05 10.143 228.003 9.67853 226.825 9.37871C225.655 9.0789 224.43 8.92688 223.151 8.92688C221.31 8.92688 219.692 9.2098 218.291 9.7672C216.901 10.3162 215.765 11.11 214.887 12.1362C214.009 13.1581 213.417 14.3658 213.118 15.7677L219.025 16.2449C219.245 15.4848 219.697 14.8556 220.377 14.3573C221.056 13.8464 221.969 13.593 223.121 13.593C224.211 13.593 225.051 13.8506 225.638 14.37C226.238 14.8936 226.538 15.6284 226.538 16.5785V16.6672C226.538 17.157 226.352 17.5244 225.984 17.7777C225.613 18.0269 225.022 18.2169 224.198 18.3478C223.379 18.4661 222.298 18.597 220.959 18.7363C219.819 18.8461 218.73 19.0361 217.691 19.3064C216.661 19.5766 215.74 19.9736 214.933 20.5056C214.123 21.0335 213.481 21.7345 213.012 22.6043C212.543 23.4742 212.307 24.5468 212.307 25.8305C212.307 27.3465 212.636 28.6175 213.299 29.6394C213.966 30.6487 214.879 31.413 216.027 31.9324C217.176 32.4433 218.485 32.6967 219.954 32.6967C221.094 32.6967 222.099 32.5447 222.969 32.2449C223.839 31.9366 224.582 31.5101 225.203 30.9738C225.824 30.4206 226.318 29.7872 226.69 29.0694H226.871V32.2618H232.927V16.7263C232.927 15.3581 232.661 14.1842 232.133 13.2045ZM226.584 24.0274C226.584 24.8382 226.377 25.5645 225.967 26.2021C225.558 26.844 224.996 27.3549 224.274 27.735C223.556 28.1024 222.724 28.2882 221.787 28.2882C220.849 28.2882 219.997 28.0644 219.355 27.6125C218.725 27.1522 218.413 26.4893 218.413 25.6194C218.413 25.0198 218.565 24.5172 218.877 24.1203C219.186 23.7107 219.621 23.3856 220.182 23.1449C220.74 22.9042 221.394 22.731 222.146 22.6212C222.496 22.5706 222.885 22.5157 223.316 22.4565C223.746 22.3848 224.173 22.3088 224.604 22.2285C225.034 22.1398 225.419 22.0427 225.761 21.9456C226.111 21.8358 226.386 21.7133 226.584 21.5867V24.0274ZM197.527 27.1649V27.0002L208.114 13.3819V9.22669L189.534 9.22669V14.3278L200.42 14.3278V14.4925L189.145 28.4528V32.2618L208.502 32.2618V27.1649L197.527 27.1649ZM183.512 13.2045C182.984 12.2122 182.258 11.4014 181.337 10.7722C180.429 10.143 179.382 9.67853 178.204 9.37871C177.034 9.0789 175.81 8.92688 174.53 8.92688C172.689 8.92688 171.072 9.2098 169.67 9.7672C168.285 10.3162 167.149 11.11 166.266 12.1362C165.388 13.1581 164.797 14.3658 164.497 15.7677L170.409 16.2449C170.628 15.4848 171.076 14.8556 171.756 14.3573C172.436 13.8464 173.352 13.593 174.501 13.593C175.59 13.593 176.43 13.8506 177.022 14.37C177.621 14.8936 177.921 15.6284 177.921 16.5785V16.6672C177.921 17.157 177.735 17.5244 177.364 17.7777C176.996 18.0269 176.401 18.2169 175.582 18.3478C174.762 18.4661 173.681 18.597 172.343 18.7363C171.203 18.8461 170.113 19.0361 169.074 19.3064C168.044 19.5766 167.124 19.9736 166.313 20.5056C165.502 21.0335 164.864 21.7345 164.391 22.6043C163.923 23.4742 163.69 24.5468 163.69 25.8305C163.69 27.3465 164.02 28.6175 164.679 29.6394C165.35 30.6487 166.258 31.413 167.406 31.9324C168.559 32.4433 169.868 32.6967 171.338 32.6967C172.478 32.6967 173.483 32.5447 174.353 32.2449C175.223 31.9366 175.966 31.5101 176.587 30.9738C177.203 30.4206 177.702 29.7872 178.069 29.0694H178.25V32.2618L184.306 32.2618V16.7263C184.306 15.3581 184.044 14.1842 183.512 13.2045ZM177.963 24.0274C177.963 24.8382 177.761 25.5645 177.351 26.2021C176.941 26.844 176.376 27.3549 175.653 27.735C174.936 28.1024 174.104 28.2882 173.166 28.2882C172.229 28.2882 171.376 28.0644 170.738 27.6125C170.105 27.1522 169.792 26.4893 169.792 25.6194C169.792 25.0198 169.949 24.5172 170.257 24.1203C170.565 23.7107 171 23.3856 171.562 23.1449C172.123 22.9042 172.778 22.731 173.525 22.6212C173.876 22.5706 174.264 22.5157 174.695 22.4565C175.126 22.3848 175.556 22.3088 175.987 22.2285C176.414 22.1398 176.798 22.0427 177.14 21.9456C177.49 21.8358 177.765 21.7133 177.963 21.5867V24.0274ZM157.698 10.9834C156.36 9.61518 154.616 8.92688 152.466 8.92688C150.773 8.92688 149.312 9.32804 148.071 10.1304C146.842 10.92 145.993 11.9715 145.52 13.2932H145.284C144.912 11.9546 144.173 10.8947 143.062 10.1135C141.952 9.32382 140.609 8.92688 139.03 8.92688C137.45 8.92688 136.129 9.31959 135.01 10.0966C133.891 10.8778 133.088 11.9419 132.611 13.2932H132.341V9.22669L126.252 9.22669L126.252 32.2618L132.641 32.2618V18.4365C132.641 17.5877 132.805 16.8445 133.135 16.2153C133.464 15.5777 133.912 15.0836 134.469 14.7331C135.039 14.37 135.681 14.1926 136.39 14.1926C137.438 14.1926 138.282 14.5262 138.924 15.1977C139.574 15.8648 139.9 16.7643 139.9 17.896V32.2618H146.09V18.1958C146.09 16.9965 146.415 16.0295 147.066 15.3032C147.716 14.56 148.619 14.1926 149.781 14.1926C150.798 14.1926 151.651 14.5136 152.331 15.1512C153.011 15.7931 153.349 16.7516 153.349 18.0311V32.2618H159.721V16.7727C159.721 14.2729 159.05 12.3431 157.698 10.9834ZM114.753 9.22669V22.4565C114.766 23.4827 114.559 24.3483 114.141 25.0493C113.731 25.7503 113.191 26.2781 112.519 26.6371C111.852 26.9876 111.13 27.1649 110.361 27.1649C109.149 27.1649 108.187 26.768 107.465 25.9783C106.747 25.1887 106.384 24.1119 106.371 22.7564V9.22669L99.9819 9.22669V23.8923C99.9946 25.6954 100.324 27.2367 100.974 28.5289C101.633 29.8168 102.549 30.8134 103.719 31.5101C104.889 32.2111 106.244 32.5616 107.781 32.5616C109.513 32.5616 110.974 32.152 112.177 31.3328C113.385 30.5135 114.251 29.4283 114.77 28.077H115.011L115.011 32.2618H121.142L121.142 9.22669L114.753 9.22669ZM82.6391 26.9073L82.6391 1.54974L76.1445 1.54974L76.1445 32.2618L95.8056 32.2618V26.9073L82.6391 26.9073Z" fill="white"/>
<path d="M262.52 18.5104L262.786 9.55396H262.387L256.401 25.4716L250.415 9.55396H250.016L250.282 18.5104V32.8318H245.227V1.88335L252.144 1.88335L256.445 13.2784H256.756L261.101 1.88335L267.574 1.88335V32.8318H262.52V18.5104ZM290.968 32.8318C289.578 32.8318 288.5 32.4919 287.731 31.812C286.992 31.1026 286.549 30.1272 286.401 28.8857H286.179C285.765 30.3045 284.952 31.413 283.741 32.2111C282.529 32.9796 281.036 33.3639 279.262 33.3639C276.957 33.3639 275.124 32.7579 273.764 31.546C272.405 30.3341 271.725 28.6492 271.725 26.4914C271.725 21.8802 275.109 19.5745 281.878 19.5745H285.913V18.067C285.913 16.6186 285.558 15.5249 284.849 14.7859C284.14 14.047 282.987 13.6775 281.391 13.6775C279.942 13.6775 278.775 13.9583 277.888 14.5199C277.001 15.0815 276.247 15.8057 275.627 16.6925L272.39 13.9435C273.099 12.6725 274.237 11.6083 275.804 10.7511C277.4 9.86433 279.454 9.42095 281.967 9.42095C284.982 9.42095 287.332 10.1304 289.017 11.5492C290.731 12.9385 291.589 15.0224 291.589 17.801V28.5753H294.293V32.8318L290.968 32.8318ZM281.169 29.4621C282.529 29.4621 283.652 29.1517 284.539 28.531C285.455 27.8807 285.913 27.0087 285.913 25.915V22.8556H282.011C278.908 22.8556 277.356 23.8311 277.356 25.782V26.6687C277.356 27.5851 277.696 28.2797 278.376 28.7527C279.055 29.2256 279.987 29.4621 281.169 29.4621ZM298.71 28.3536L304.385 28.3536V14.4312L298.71 14.4312V9.95301L310.06 9.95301V16.2048H310.415C310.622 15.4067 310.903 14.6381 311.258 13.8992C311.642 13.1306 312.115 12.4655 312.676 11.9039C313.268 11.3127 313.977 10.8398 314.805 10.4851C315.632 10.1304 316.623 9.95301 317.775 9.95301H320.258V15.2737L315.558 15.2737C313.844 15.2737 312.499 15.7762 311.524 16.7812C310.548 17.7862 310.06 19.072 310.06 20.6387V28.3536H317.997V32.8318L298.71 32.8318V28.3536ZM324.941 0.0211182L330.616 0.0211182V19.2642H330.882L334.208 15.6284L339.839 9.95301L346.445 9.95301L337.356 18.9538L347.421 32.8318H340.637L333.321 22.1905L330.616 24.7622V32.8318H324.941V0.0211182Z" fill="white"/>
<path d="M361.366 33.7862C359.533 33.7862 357.907 33.5054 356.488 32.9437C355.069 32.3821 353.872 31.584 352.897 30.5494C351.951 29.5149 351.227 28.2734 350.724 26.825C350.222 25.347 349.97 23.6917 349.97 21.859C349.97 19.9968 350.222 18.3267 350.724 16.8487C351.256 15.3708 351.995 14.1145 352.941 13.0799C353.887 12.0454 355.025 11.2473 356.355 10.6857C357.715 10.124 359.237 9.84322 360.922 9.84322C362.577 9.84322 364.07 10.124 365.4 10.6857C366.731 11.2177 367.854 11.9863 368.77 12.9913C369.716 13.9963 370.44 15.2082 370.943 16.6271C371.445 18.0459 371.696 19.6125 371.696 21.327V23.1892L355.646 23.1892V23.7656C355.646 25.4209 356.163 26.7659 357.198 27.8004C358.232 28.8054 359.681 29.308 361.543 29.308C362.962 29.308 364.174 29.0271 365.179 28.4655C366.213 27.8743 367.07 27.1058 367.75 26.1599L370.987 29.3966C370.159 30.6086 368.947 31.6431 367.351 32.5003C365.785 33.3576 363.789 33.7862 361.366 33.7862ZM360.966 14.0111C359.37 14.0111 358.084 14.5136 357.109 15.5186C356.134 16.5236 355.646 17.8538 355.646 19.5091V19.8194L366.021 19.8194V19.4204C366.021 17.7651 365.563 16.4497 364.647 15.4742C363.76 14.4988 362.533 14.0111 360.966 14.0111ZM385.868 33.2541C383.68 33.2541 382.069 32.6777 381.035 31.5249C380 30.3721 379.483 28.8793 379.483 27.0467V14.8535L372.832 14.8535V10.3753L377.355 10.3753C378.271 10.3753 378.921 10.1979 379.305 9.84322C379.69 9.45895 379.882 8.79386 379.882 7.84797V2.30562L385.158 2.30562V10.3753L394.469 10.3753V14.8535L385.158 14.8535V28.7759L394.469 28.7759V33.2541H385.868ZM409.217 6.82818C407.887 6.82818 406.941 6.54736 406.379 5.98574C405.847 5.42411 405.581 4.74425 405.581 3.94615V2.88202C405.581 2.08392 405.847 1.40406 406.379 0.842437C406.941 0.280812 407.887 0 409.217 0C410.547 0 411.478 0.280812 412.01 0.842437C412.572 1.40406 412.853 2.08392 412.853 2.88202V3.94615C412.853 4.74425 412.572 5.42411 412.01 5.98574C411.478 6.54736 410.547 6.82818 409.217 6.82818ZM398.842 28.7759L406.379 28.7759V14.8535L398.842 14.8535V10.3753L412.055 10.3753V28.7759L419.06 28.7759V33.2541L398.842 33.2541V28.7759ZM421.304 33.2541V10.3753L426.979 10.3753V14.4101H427.201C427.704 13.1686 428.472 12.1045 429.507 11.2177C430.571 10.3014 432.034 9.84322 433.896 9.84322C436.143 9.84322 437.961 10.597 439.35 12.1045C440.769 13.5825 441.478 15.7107 441.478 18.4893V33.2541L435.803 33.2541V19.2874C435.803 15.9768 434.369 14.3214 431.502 14.3214C430.911 14.3214 430.349 14.3953 429.817 14.5431C429.285 14.6909 428.797 14.9274 428.354 15.2526C427.94 15.5481 427.6 15.9176 427.334 16.361C427.098 16.8044 426.979 17.3365 426.979 17.9572V33.2541H421.304ZM467 35.6484C467 38.0427 465.995 39.8015 463.985 40.9247C462.004 42.0775 458.901 42.6539 454.674 42.6539C452.605 42.6539 450.875 42.5209 449.486 42.2549C448.097 42.0184 446.974 41.6637 446.116 41.1908C445.289 40.7178 444.698 40.1414 444.343 39.4615C443.988 38.8112 443.811 38.0723 443.811 37.2446C443.811 35.9736 444.18 34.9981 444.919 34.3182C445.658 33.6384 446.693 33.1359 448.023 32.8107V32.456C447.136 32.1604 446.427 31.7466 445.895 31.2145C445.392 30.6825 445.141 29.9435 445.141 28.9976C445.141 27.8743 445.51 27.0319 446.249 26.4703C447.018 25.9086 448.023 25.48 449.264 25.1844V24.9628C447.905 24.3124 446.841 23.3961 446.072 22.2137C445.304 21.0314 444.919 19.5978 444.919 17.9129C444.919 16.6418 445.141 15.5186 445.584 14.5431C446.057 13.5381 446.708 12.6957 447.535 12.0158C448.392 11.3064 449.412 10.7743 450.595 10.4196C451.777 10.0354 453.092 9.84322 454.541 9.84322C456.078 9.84322 457.467 10.0501 458.709 10.464V9.48851C458.709 8.60173 458.989 7.86275 459.551 7.27157C460.142 6.68038 460.955 6.38479 461.99 6.38479L466.113 6.38479V10.6413L460.704 10.6413V11.3951C461.827 12.0749 462.684 12.9617 463.276 14.0554C463.896 15.1195 464.207 16.4054 464.207 17.9129C464.207 19.1839 463.97 20.322 463.497 21.327C463.054 22.332 462.404 23.1744 461.546 23.8543C460.719 24.5341 459.699 25.0662 458.487 25.4505C457.305 25.8052 455.989 25.9825 454.541 25.9825C453.95 25.9825 453.373 25.9678 452.812 25.9382C452.28 25.8791 451.762 25.7756 451.26 25.6278C450.846 25.7756 450.447 26.0121 450.063 26.3373C449.678 26.6624 449.486 27.091 449.486 27.6231C449.486 28.3325 449.826 28.7759 450.506 28.9532C451.186 29.101 451.999 29.1749 452.945 29.1749H458.132C459.728 29.1749 461.088 29.3375 462.211 29.6627C463.335 29.9583 464.251 30.4016 464.96 30.9928C465.67 31.5545 466.187 32.2343 466.512 33.0324C466.837 33.8305 467 34.7025 467 35.6484ZM461.679 36.0475C461.679 35.3676 461.399 34.8207 460.837 34.4069C460.305 34.0227 459.3 33.8305 457.822 33.8305L449.93 33.8305C449.043 34.333 448.599 35.072 448.599 36.0475C448.599 36.8456 448.925 37.5106 449.575 38.0427C450.255 38.5748 451.393 38.8408 452.989 38.8408H456.669C460.009 38.8408 461.679 37.9097 461.679 36.0475ZM454.541 22.2581C455.989 22.2581 457.053 21.9182 457.733 21.2383C458.413 20.5289 458.753 19.6125 458.753 18.4893V17.3365C458.753 16.2132 458.413 15.3117 457.733 14.6318C457.053 13.9224 455.989 13.5677 454.541 13.5677C453.122 13.5677 452.073 13.9224 451.393 14.6318C450.713 15.3117 450.373 16.2132 450.373 17.3365V18.4893C450.373 19.6125 450.713 20.5289 451.393 21.2383C452.073 21.9182 453.122 22.2581 454.541 22.2581Z" fill="white"/>
<defs>
<linearGradient id="paint0_linear_8_96" x1="-1.09787e-07" y1="28.1868" x2="28.7147" y2="28.1868" gradientUnits="userSpaceOnUse">
<stop stop-color="#FF6666"/>
<stop offset="1" stop-color="#FF6666" stop-opacity="0.2"/>
</linearGradient>
<linearGradient id="paint1_linear_8_96" x1="27.8701" y1="4.53945" x2="56.5848" y2="4.53945" gradientUnits="userSpaceOnUse">
<stop stop-color="#FF6666"/>
<stop offset="1" stop-color="#FF6666" stop-opacity="0.2"/>
</linearGradient>
<linearGradient id="paint2_linear_8_96" x1="13.5127" y1="16.5109" x2="42.2274" y2="16.5109" gradientUnits="userSpaceOnUse">
<stop stop-color="#FF6666"/>
<stop offset="1" stop-color="#FF6666" stop-opacity="0.2"/>
</linearGradient>
</defs>
</svg>
