<?xml version="1.0" encoding="UTF-8"?>
<svg id="Layer_2" data-name="Layer 2" xmlns="http://www.w3.org/2000/svg" viewBox="0 0 266.55 148.25">
  <defs>
    <style>
      .cls-1 {
        fill: #f8f2dc;
      }

      .cls-2 {
        fill: #f03e3e;
      }
    </style>
  </defs>
  <g id="Layer_1-2" data-name="Layer 1">
    <path d="M107.16,64.29l.22,.53,.22-.53h-.44Zm51.44,32.31v.03h.78v-.03h-.78Z"/>
    <polygon points="133.49 64.29 133.37 64.57 133.27 64.82 133.05 64.29 133.49 64.29"/>
    <rect x="132.88" y="96.6" width=".78" height=".03"/>
    <polygon class="cls-2" points="133.15 64.29 133.39 64.29 133.27 64.57 133.15 64.29"/>
    <rect class="cls-2" x="132.88" y="96.6" width=".78" height=".03"/>
    <g>
      <path class="cls-1" d="M83.11,80.66V0h-20.64V98.64H127v-17.98h-43.89Z"/>
      <polygon class="cls-2" points="204.08 0 204.08 98.49 183.43 98.49 183.43 40.99 183.35 41.18 161.74 93.67 139.39 93.67 100.04 0 122.48 0 124.9 5.76 150.27 66.18 150.49 66.71 150.71 66.18 177.96 0 204.08 0"/>
    </g>
    <polygon class="cls-2" points="161.74 93.67 139.74 93.67 106.11 13.65 124.9 5.76 150.27 66.18 150.49 66.71 150.71 66.18 177.96 0 204.08 0 204.08 98.49 183.43 98.49 183.43 40.99 183.35 41.18 161.74 93.67"/>
    <g>
      <g>
        <path class="cls-1" d="M5.16,136.62v-20.17H0v24.66H16.13v-4.49H5.16Z"/>
        <path class="cls-1" d="M28.9,122.26v10.87c0,1.26-.32,2.26-.97,2.98-.65,.73-1.6,1.09-2.84,1.09-2.31,0-3.47-1.31-3.47-3.93v-11.01h-4.97v12.29c0,1.09,.15,2.07,.46,2.94,.31,.86,.75,1.6,1.32,2.19,.57,.6,1.26,1.06,2.07,1.37,.82,.31,1.73,.47,2.75,.47,1.43,0,2.6-.3,3.49-.89,.9-.59,1.57-1.44,2.01-2.54h.31v3.02h4.82v-18.85h-4.98Z"/>
        <path class="cls-1" d="M62.57,125.55c-.28-.78-.69-1.44-1.21-1.99-.52-.55-1.16-.97-1.92-1.26-.76-.3-1.61-.45-2.54-.45-.66,0-1.29,.08-1.88,.25-.59,.16-1.13,.4-1.62,.71s-.92,.67-1.29,1.1-.67,.9-.88,1.43h-.31c-.38-1.11-1.01-1.97-1.89-2.57-.88-.61-1.99-.92-3.32-.92-.62,0-1.2,.08-1.76,.24-.55,.16-1.05,.39-1.49,.69-.45,.3-.84,.67-1.17,1.1-.34,.44-.6,.92-.8,1.46h-.3v-3.08h-4.82v18.85h4.97v-11.35c0-.52,.08-1,.25-1.45,.16-.44,.39-.83,.69-1.14,.3-.32,.65-.57,1.05-.76,.4-.18,.85-.27,1.34-.27,.98,0,1.75,.27,2.29,.82,.55,.55,.82,1.32,.82,2.32v11.83h4.79v-11.53c0-.51,.07-.97,.23-1.39,.15-.42,.37-.78,.67-1.08,.29-.31,.64-.54,1.05-.71,.41-.17,.86-.26,1.36-.26,2.1,0,3.15,1.12,3.15,3.35v11.62h4.97v-12.94c0-.96-.14-1.84-.43-2.62Z"/>
        <path class="cls-1" d="M79.56,125.55c-.35-.79-.86-1.46-1.52-2.01-.66-.54-1.47-.96-2.45-1.25-.97-.29-2.08-.44-3.32-.44s-2.27,.13-3.24,.39c-.98,.27-1.82,.64-2.54,1.14-.72,.5-1.29,1.09-1.72,1.79-.42,.71-.68,1.49-.76,2.35h4.58c.21-.56,.6-1,1.18-1.29,.58-.3,1.32-.45,2.22-.45,1.04,0,1.83,.21,2.37,.64,.54,.43,.81,1.04,.81,1.82v1.54l-4.56,.27c-2.36,.14-4.17,.69-5.42,1.65-1.25,.97-1.88,2.31-1.88,4.03,0,.86,.15,1.64,.45,2.34,.31,.69,.73,1.29,1.28,1.79,.54,.49,1.19,.87,1.95,1.14,.75,.27,1.58,.4,2.49,.4,1.23,0,2.33-.24,3.29-.72,.96-.49,1.69-1.16,2.18-2.03h.31v2.46h4.82v-12.87c0-1-.18-1.9-.52-2.69Zm-4.39,8.73c0,.47-.1,.92-.31,1.33-.2,.41-.49,.77-.85,1.07-.36,.31-.79,.55-1.28,.72-.49,.17-1.03,.26-1.61,.26-.86,0-1.57-.2-2.12-.6-.54-.4-.82-.95-.82-1.66,0-1.36,1.06-2.12,3.18-2.27l3.81-.24v1.39Z"/>
        <path class="cls-1" d="M87.53,137.15v-.31l8.99-11.3v-3.28h-15.35v3.97h9.4v.3l-9.53,11.64v2.94h15.7v-3.96h-9.21Z"/>
        <path class="cls-1" d="M113.02,125.55c-.34-.79-.85-1.46-1.51-2.01-.66-.54-1.48-.96-2.45-1.25-.97-.29-2.08-.44-3.33-.44-1.18,0-2.26,.13-3.23,.39-.98,.27-1.82,.64-2.54,1.14-.72,.5-1.29,1.09-1.72,1.79-.43,.71-.68,1.49-.76,2.35h4.58c.21-.56,.6-1,1.18-1.29,.58-.3,1.32-.45,2.22-.45,1.04,0,1.83,.21,2.37,.64,.54,.43,.81,1.04,.81,1.82v1.54l-4.56,.27c-2.36,.14-4.17,.69-5.42,1.65-1.25,.97-1.88,2.31-1.88,4.03,0,.86,.15,1.64,.45,2.34,.3,.69,.73,1.29,1.28,1.79,.54,.49,1.19,.87,1.94,1.14,.76,.27,1.59,.4,2.5,.4,1.23,0,2.33-.24,3.29-.72,.96-.49,1.69-1.16,2.18-2.03h.31v2.46h4.82v-12.87c0-1-.18-1.9-.53-2.69Zm-4.38,8.73c0,.47-.1,.92-.31,1.33-.2,.41-.49,.77-.85,1.07-.37,.31-.79,.55-1.28,.72-.49,.17-1.03,.26-1.61,.26-.87,0-1.57-.2-2.12-.6-.55-.4-.82-.95-.82-1.66,0-1.36,1.06-2.12,3.18-2.27l3.81-.24v1.39Z"/>
        <path class="cls-1" d="M141,116.45l-6.84,16.58h-.31l-6.81-16.58h-6.09v24.66h4.79v-16.49h.27l6.29,15.07h3.43l6.28-15.07h.27v16.49h4.78v-24.66h-6.06Z"/>
        <path class="cls-1" d="M164.29,125.55c-.35-.79-.85-1.46-1.51-2.01-.67-.54-1.48-.96-2.46-1.25-.97-.29-2.08-.44-3.32-.44-.54,0-1.06,.03-1.55,.09-.6,.05-1.16,.16-1.69,.3-.63,.18-1.21,.39-1.73,.67-.29,.14-.56,.29-.81,.47-.72,.5-1.29,1.09-1.71,1.79-.43,.71-.69,1.49-.77,2.35h4.58c.09-.24,.21-.46,.37-.65,.21-.26,.48-.47,.81-.64,.58-.3,1.33-.45,2.22-.45,.13,0,.26,0,.38,.01,.85,.05,1.52,.25,1.99,.63,.54,.43,.81,1.04,.81,1.82v1.54l-1.06,.06-3.5,.21c-.1,.01-.2,.01-.3,.02-2.21,.17-3.91,.71-5.12,1.63-1.25,.97-1.88,2.31-1.88,4.03,0,.86,.15,1.64,.46,2.34,.3,.69,.72,1.29,1.27,1.79,.55,.49,1.2,.87,1.95,1.14,.75,.27,1.58,.4,2.49,.4,1.23,0,2.33-.24,3.29-.72,.6-.3,1.11-.68,1.52-1.12,.25-.28,.47-.58,.66-.91h.31v2.46h4.82v-12.87c0-1-.17-1.9-.52-2.69Zm-4.39,8.73c0,.47-.1,.92-.3,1.33-.21,.41-.49,.77-.86,1.07-.22,.19-.46,.35-.72,.48-.18,.09-.36,.17-.56,.24-.49,.17-1.03,.26-1.61,.26-.86,0-1.57-.2-2.12-.6-.54-.4-.82-.95-.82-1.66,0-1.36,1.06-2.12,3.18-2.27h.23s3.58-.24,3.58-.24v1.39Z"/>
        <path class="cls-1" d="M178.09,122.18c-.22-.07-.5-.13-.86-.17-.37-.04-.73-.06-1.07-.06-.6,0-1.17,.09-1.7,.26-.53,.17-1.01,.4-1.43,.7-.42,.3-.78,.65-1.07,1.05-.3,.41-.51,.84-.64,1.31h-.3v-3.01h-4.82v18.85h4.97v-10.44c0-.66,.11-1.25,.33-1.78,.22-.52,.54-.97,.94-1.34,.41-.37,.89-.65,1.45-.85,.55-.19,1.18-.29,1.86-.29,.21,0,.42,.01,.66,.03,.23,.02,.46,.04,.67,.07,.22,.03,.42,.06,.6,.1,.17,.04,.31,.08,.41,.1t.02,.01v-4.53s-.01,0-.02-.01Z"/>
        <path class="cls-1" d="M188.16,130.34l7.18-8.08h-5.66l-6.3,7.37h-.31v-14.56h-4.98v26.04h4.98v-6.25l1.36-1.41,5.51,7.66h5.89l-7.67-10.77Z"/>
        <path class="cls-1" d="M212.45,132.89v-1.52c0-1.49-.2-2.83-.6-4.01-.4-1.18-.98-2.17-1.73-2.99-.76-.81-1.69-1.44-2.78-1.87-1.1-.43-2.34-.65-3.73-.65s-2.66,.23-3.77,.69c-1.12,.46-2.07,1.12-2.86,1.98-.78,.85-1.39,1.89-1.8,3.12-.42,1.22-.63,2.6-.63,4.14s.21,2.89,.62,4.1c.41,1.21,1.01,2.23,1.8,3.07,.78,.84,1.74,1.47,2.87,1.91,1.12,.44,2.41,.66,3.84,.66,1.15,0,2.21-.13,3.19-.4,.97-.27,1.83-.65,2.57-1.15,.74-.51,1.35-1.11,1.84-1.82,.48-.72,.82-1.52,1.01-2.41h-4.63c-.26,.63-.72,1.11-1.37,1.45-.66,.34-1.48,.5-2.47,.5-.65,0-1.24-.1-1.76-.31-.53-.21-.97-.52-1.34-.91-.37-.39-.67-.87-.88-1.43-.21-.55-.32-1.19-.33-1.89v-.26h12.94Zm-12.53-4.84c.22-.5,.51-.92,.86-1.28,.36-.35,.78-.62,1.26-.82,.48-.19,1.01-.29,1.59-.29,1.17,0,2.11,.36,2.8,1.09,.7,.72,1.07,1.71,1.13,2.96h-8.03c.04-.61,.17-1.17,.39-1.66Z"/>
        <path class="cls-1" d="M223.32,126.36v-3.91h-3.91v-4.67h-4.98v4.67h-2.94v3.91h2.94v9.66c0,.92,.12,1.71,.35,2.36,.24,.65,.61,1.18,1.12,1.59,.52,.42,1.18,.73,1.99,.92,.8,.19,1.78,.29,2.93,.29,.48,0,.94-.02,1.38-.07,.44-.04,.81-.1,1.12-.15v-3.8c-.24,.03-.46,.04-.67,.05-.2,.02-.47,.02-.8,.02-.85,0-1.48-.19-1.86-.58-.39-.39-.58-.99-.58-1.81v-8.48h3.91Z"/>
        <path class="cls-1" d="M223.99,122.26v18.85h4.97v-18.85h-4.97Zm5.22-6.17c-.14-.31-.34-.57-.6-.79-.25-.23-.56-.4-.92-.52s-.76-.18-1.2-.18-.85,.06-1.22,.18c-.36,.12-.67,.29-.93,.52-.26,.22-.45,.48-.59,.79s-.2,.65-.2,1.03c0,.36,.06,.7,.2,1.01,.14,.3,.33,.57,.59,.79,.26,.22,.57,.4,.93,.52,.37,.13,.77,.19,1.22,.19s.84-.06,1.2-.19c.36-.12,.67-.3,.92-.52,.26-.22,.46-.49,.6-.79,.14-.31,.22-.65,.22-1.01,0-.38-.08-.72-.22-1.03Z"/>
        <path class="cls-1" d="M245.98,123.7c-1.1-1.23-2.7-1.85-4.79-1.85-1.41,0-2.58,.31-3.52,.92-.94,.6-1.62,1.44-2.06,2.52h-.3v-3.03h-4.82v18.85h4.97v-10.87c0-.61,.09-1.17,.26-1.68,.17-.51,.42-.94,.74-1.3,.33-.36,.72-.64,1.17-.83,.46-.19,.98-.29,1.56-.29,1.18,0,2.06,.33,2.62,1,.56,.67,.85,1.66,.85,2.97v11h4.97v-12.18c0-2.26-.55-4-1.65-5.23Z"/>
        <path class="cls-1" d="M261.73,122.26v3.03h-.31c-.25-.52-.57-.98-.95-1.4-.39-.41-.83-.76-1.33-1.05-.49-.28-1.03-.5-1.61-.66-.58-.15-1.19-.23-1.83-.23-1.2,0-2.27,.23-3.23,.68-.96,.45-1.77,1.09-2.44,1.92-.66,.83-1.17,1.84-1.53,3.02-.35,1.18-.53,2.5-.53,3.95s.18,2.71,.53,3.86c.36,1.14,.86,2.12,1.53,2.93,.66,.81,1.46,1.43,2.4,1.87s1.99,.66,3.17,.66c1.33,0,2.48-.26,3.44-.77,.96-.51,1.71-1.27,2.23-2.27h.31v3.48c0,1.07-.37,1.9-1.1,2.48-.74,.58-1.78,.87-3.12,.87-1.09,0-1.96-.17-2.63-.51-.66-.34-1.06-.8-1.18-1.39h-4.93c.08,.84,.34,1.59,.78,2.27s1.03,1.26,1.78,1.74c.75,.49,1.63,.86,2.66,1.12,1.02,.26,2.16,.39,3.41,.39,1.43,0,2.71-.16,3.86-.5,1.14-.34,2.12-.82,2.93-1.44,.81-.63,1.43-1.39,1.86-2.28,.43-.89,.65-1.88,.65-2.99v-18.78h-4.82Zm-.39,11.5c-.2,.66-.48,1.23-.85,1.69-.37,.47-.82,.83-1.36,1.08-.53,.25-1.14,.38-1.81,.38s-1.27-.13-1.8-.38c-.53-.25-.97-.61-1.33-1.08-.36-.46-.64-1.03-.82-1.7-.19-.66-.29-1.41-.29-2.24s.1-1.57,.29-2.23c.18-.67,.46-1.24,.83-1.7,.36-.47,.8-.83,1.33-1.08,.52-.25,1.12-.38,1.79-.38s1.28,.13,1.81,.38,.97,.61,1.35,1.08c.37,.46,.65,1.03,.85,1.7,.2,.66,.3,1.41,.3,2.24s-.1,1.58-.29,2.24Z"/>
      </g>
      <path class="cls-2" d="M164.81,128.24v12.87h-4.82v-2.46h-.31c-.19,.33-.41,.63-.66,.91l-1-2.4c.26-.13,.5-.29,.72-.48,.37-.3,.65-.66,.86-1.07,.2-.41,.3-.86,.3-1.33v-1.39l-3.58,.23-1.28-3.05c.1-.01,.2-.01,.3-.02l3.5-.21,1.06-.06v-1.54c0-.78-.27-1.39-.81-1.82-.47-.38-1.14-.58-1.99-.63-.12-.01-.25-.01-.38-.01-.89,0-1.64,.15-2.22,.45-.33,.17-.6,.38-.81,.64l-1.66-3.96c.52-.28,1.1-.49,1.73-.67,.53-.14,1.09-.25,1.69-.3,.49-.06,1.01-.09,1.55-.09,1.24,0,2.35,.15,3.32,.44,.98,.29,1.79,.71,2.46,1.25,.66,.55,1.16,1.22,1.51,2.01,.35,.79,.52,1.69,.52,2.69Z"/>
      <path class="cls-2" d="M188.16,130.34l7.67,10.77h-5.89l-5.51-7.66-1.36,1.41v6.25h-4.98v-14.4c-.1-.02-.24-.06-.41-.1-.18-.04-.38-.07-.6-.1-.21-.03-.44-.05-.67-.07-.24-.02-.45-.03-.66-.03-.68,0-1.31,.1-1.86,.29-.56,.2-1.04,.48-1.45,.85-.4,.37-.72,.82-.94,1.34-.22,.53-.33,1.12-.33,1.78v10.44h-4.97v-18.85h4.82v3.01h.3c.13-.47,.34-.9,.64-1.31,.29-.4,.65-.75,1.07-1.05,.42-.3,.9-.53,1.43-.7,.53-.17,1.1-.26,1.7-.26,.34,0,.7,.02,1.07,.06,.36,.04,.64,.1,.86,.17v-7.11h4.98v14.56h.31l6.3-7.37h5.66l-7.18,8.08Z"/>
      <path class="cls-2" d="M212.45,132.89v-1.52c0-1.49-.2-2.83-.6-4.01-.4-1.18-.98-2.17-1.73-2.99-.76-.81-1.69-1.44-2.78-1.87-1.1-.43-2.34-.65-3.73-.65s-2.66,.23-3.77,.69c-1.12,.46-2.07,1.12-2.86,1.98-.78,.85-1.39,1.89-1.8,3.12-.42,1.22-.63,2.6-.63,4.14s.21,2.89,.62,4.1c.41,1.21,1.01,2.23,1.8,3.07,.78,.84,1.74,1.47,2.87,1.91,1.12,.44,2.41,.66,3.84,.66,1.15,0,2.21-.13,3.19-.4,.97-.27,1.83-.65,2.57-1.15,.74-.51,1.35-1.11,1.84-1.82,.48-.72,.82-1.52,1.01-2.41h-4.63c-.26,.63-.72,1.11-1.37,1.45-.66,.34-1.48,.5-2.47,.5-.65,0-1.24-.1-1.76-.31-.53-.21-.97-.52-1.34-.91-.37-.39-.67-.87-.88-1.43-.21-.55-.32-1.19-.33-1.89v-.26h12.94Zm-12.53-4.84c.22-.5,.51-.92,.86-1.28,.36-.35,.78-.62,1.26-.82,.48-.19,1.01-.29,1.59-.29,1.17,0,2.11,.36,2.8,1.09,.7,.72,1.07,1.71,1.13,2.96h-8.03c.04-.61,.17-1.17,.39-1.66Z"/>
      <path class="cls-2" d="M219.41,122.45h3.91v3.91h-3.91v8.48c0,.82,.19,1.42,.58,1.81,.38,.39,1.01,.58,1.86,.58,.33,0,.6,0,.8-.02,.21,0,.43-.02,.67-.05v3.8c-.31,.05-.68,.11-1.12,.15-.44,.05-.9,.07-1.38,.07-1.15,0-2.13-.1-2.93-.29-.81-.19-1.47-.5-1.99-.92-.51-.41-.88-.94-1.12-1.59-.23-.65-.35-1.44-.35-2.36v-9.66h-2.94v-3.91h2.94v-4.67h4.98v4.67Z"/>
      <rect class="cls-2" x="223.99" y="122.26" width="4.97" height="18.85"/>
      <path class="cls-2" d="M229.21,116.09c.14,.31,.22,.65,.22,1.03,0,.36-.08,.7-.22,1.01-.14,.3-.34,.57-.6,.79-.25,.22-.56,.4-.92,.52-.36,.13-.76,.19-1.2,.19s-.85-.06-1.22-.19c-.36-.12-.67-.3-.93-.52-.26-.22-.45-.49-.59-.79-.14-.31-.2-.65-.2-1.01,0-.38,.06-.72,.2-1.03s.33-.57,.59-.79c.26-.23,.57-.4,.93-.52,.37-.12,.77-.18,1.22-.18s.84,.06,1.2,.18,.67,.29,.92,.52c.26,.22,.46,.48,.6,.79Z"/>
      <path class="cls-2" d="M245.98,123.7c1.1,1.23,1.65,2.97,1.65,5.23v12.18h-4.97v-11c0-1.31-.29-2.3-.85-2.97-.56-.67-1.44-1-2.62-1-.58,0-1.1,.1-1.56,.29-.45,.19-.84,.47-1.17,.83-.32,.36-.57,.79-.74,1.3-.17,.51-.26,1.07-.26,1.68v10.87h-4.97v-18.85h4.82v3.03h.3c.44-1.08,1.12-1.92,2.06-2.52,.94-.61,2.11-.92,3.52-.92,2.09,0,3.69,.62,4.79,1.85Z"/>
      <path class="cls-2" d="M261.73,122.26v3.03h-.31c-.25-.52-.57-.98-.95-1.4-.39-.41-.83-.76-1.33-1.05-.49-.28-1.03-.5-1.61-.66-.58-.15-1.19-.23-1.83-.23-1.2,0-2.27,.23-3.23,.68-.96,.45-1.77,1.09-2.44,1.92-.66,.83-1.17,1.84-1.53,3.02-.35,1.18-.53,2.5-.53,3.95s.18,2.71,.53,3.86c.36,1.14,.86,2.12,1.53,2.93,.66,.81,1.46,1.43,2.4,1.87s1.99,.66,3.17,.66c1.33,0,2.48-.26,3.44-.77,.96-.51,1.71-1.27,2.23-2.27h.31v3.48c0,1.07-.37,1.9-1.1,2.48-.74,.58-1.78,.87-3.12,.87-1.09,0-1.96-.17-2.63-.51-.66-.34-1.06-.8-1.18-1.39h-4.93c.08,.84,.34,1.59,.78,2.27s1.03,1.26,1.78,1.74c.75,.49,1.63,.86,2.66,1.12,1.02,.26,2.16,.39,3.41,.39,1.43,0,2.71-.16,3.86-.5,1.14-.34,2.12-.82,2.93-1.44,.81-.63,1.43-1.39,1.86-2.28,.43-.89,.65-1.88,.65-2.99v-18.78h-4.82Zm-.39,11.5c-.2,.66-.48,1.23-.85,1.69-.37,.47-.82,.83-1.36,1.08-.53,.25-1.14,.38-1.81,.38s-1.27-.13-1.8-.38c-.53-.25-.97-.61-1.33-1.08-.36-.46-.64-1.03-.82-1.7-.19-.66-.29-1.41-.29-2.24s.1-1.57,.29-2.23c.18-.67,.46-1.24,.83-1.7,.36-.47,.8-.83,1.33-1.08,.52-.25,1.12-.38,1.79-.38s1.28,.13,1.81,.38,.97,.61,1.35,1.08c.37,.46,.65,1.03,.85,1.7,.2,.66,.3,1.41,.3,2.24s-.1,1.58-.29,2.24Z"/>
    </g>
  </g>
</svg>